# xmcd
#
# Track frame offsets: 
#        150
#        11669
#        16026
#        37022
#        49139
#        56029
#        60159
#        73617
#        80252
#        91845
#        98071
#        110461
#        120972
#        126929
#        131329
#        142207
#        155606
#        175726
#        197601
#        220321
#        235609
#        245841
#        258616
#        273738
#        284141
#
# Disc length: 3960 seconds
#
# Revision: 0
# Processed by: cddbd v1.5.2PL0 Copyright (c) Steve Scherf et al.
# Submitted via: ExactAudioCopy v0.95b4
#
DISCID=6a0f7619
DTITLE=The Beatles  - John Barrett's Cassette Dubs, Vol. 6
DYEAR=1900
DGENRE=
TTITLE0=Love Me Do (Take 18)
TTITLE1=How Do You Do It? (Take 2 - excerpt)
TTITLE2=I Saw Her Standing There (Take 2, 11 and 12)
TTITLE3=Twist and Shout (Take 1 - RS1 - 2\\25\\63)
TTITLE4=One After 909 (Take 4 - incomplete)
TTITLE5=Don't Bother Me (Take 11 and 12 - incomplete)
TTITLE6=A Hard Day's Night (Takes 2 and 3 - false starts - Take 9 - RS2)
TTITLE7=Leave My Kitten Alone (Take 5 - excerpt)
TTITLE8=I'm A Loser (Take 8)
TTITLE9=She's A Woman (Take 1, excerpt)
TTITLE10=Ticket To Ride (Take 2)
TTITLE11=Help! (Take 5 - instrumental)
TTITLE12=Norwegian Wood (This Bird Has Flown) (Take 1 - incomplete)
TTITLE13=I'm Looking Through You (Take 1 - incomplete)
TTITLE14=Paperback Writer (Take 2 - RS3 - 10\\31\\66)
TTITLE15=Rain (Take 7 - RS1)
TTITLE16=Penny Lane (Take 9 - RS1)
TTITLE17=Strawberry Fields Forever (medley - Take 1, 7 and 26)
TTITLE18=A Day In the Life (with count-in)
TTITLE19=Hello, Goodbye (Take 22 - RS2)
TTITLE20=Lady Madonna (Take 4)
TTITLE21=Hey Jude (Take 9 - incomplete)
TTITLE22=While My Guitar Gently Weeps (unedited Take 1 - acoustic)
TTITLE23=Because (Take 7 - alt. mix with a capella first half)
TTITLE24=#9 Dream (spoken intro by Ringo)
EXTD=
EXTT0=
EXTT1=
EXTT2=
EXTT3=
EXTT4=
EXTT5=
EXTT6=
EXTT7=
EXTT8=
EXTT9=
EXTT10=
EXTT11=
EXTT12=
EXTT13=
EXTT14=
EXTT15=
EXTT16=
EXTT17=
EXTT18=
EXTT19=
EXTT20=
EXTT21=
EXTT22=
EXTT23=
EXTT24=
PLAYORDER=
